<svg width="88" height="97" viewBox="0 0 88 97" fill="none" xmlns="http://www.w3.org/2000/svg">
  <path stroke="red"
    d="M50.6569 2.45648L65.4966 10.8676L65.5034 10.8715L80.2075 19.5176C84.2991 21.9234 86.8266 26.3012 86.8644 31.0476L87 48.1047V48.1126L86.8644 65.1697C86.8266 69.9161 84.2991 74.2939 80.2075 76.6997L65.5034 85.3458L65.4966 85.3497L50.6569 93.7608C46.5275 96.1013 41.4725 96.1013 37.3431 93.7608L22.5034 85.3497L22.4965 85.3458L7.79249 76.6997C3.70091 74.2939 1.17337 69.9161 1.13564 65.1697L0.999984 48.1126L1.00002 48.1086L1.13564 31.0476C1.17337 26.3012 3.70091 21.9234 7.79249 19.5176L22.5 10.8696L37.3431 2.45648C41.4725 0.115981 46.5275 0.115981 50.6569 2.45648Z" />
</svg>