<svg xmlns="http://www.w3.org/2000/svg" width="58" height="58" viewBox="0 0 58 58">
  <defs>
    <style>
      .cls-1 {
        fill: #fff;
        fill-rule: evenodd;
      }
    </style>
  </defs>
  <path id="pen" class="cls-1" d="M111.279,46.676A15.483,15.483,0,0,0,100.5,42a11.857,11.857,0,0,0-8.463,3.4L83.217,54.29c-0.027.025-.058,0.042-0.085,0.069s-0.023.033-.037,0.048l0,0L64.376,73.276a7.288,7.288,0,0,0-1.835,3.091l-4.257,15.42A12.471,12.471,0,0,0,58,93.656,6.349,6.349,0,0,0,64.353,100a12.926,12.926,0,0,0,2.1-.34L81.816,95.62a7.3,7.3,0,0,0,3.09-1.841L112.57,65.9C117.6,60.861,117.035,52.422,111.279,46.676ZM87.026,85.13a14.762,14.762,0,0,0-1.3-4.764l17.135-17.134a8.835,8.835,0,0,1-1.786,9.07c-0.014.014-.031,0.023-0.045,0.037l0.022,0.023L87.044,86.48C87.046,86.03,87.067,85.588,87.026,85.13Zm-2.212-6.416a14.908,14.908,0,0,0-6.1-5.838L95.99,55.6a12.517,12.517,0,0,1,6.122,5.814Zm-7.808-6.694a14.441,14.441,0,0,0-5.2-1.085L85.77,56.866a8.7,8.7,0,0,1,8.316-1.924ZM65.555,96.145a8.912,8.912,0,0,1-1.23.229,2.726,2.726,0,0,1-2.7-2.719,9.212,9.212,0,0,1,.184-1.02l1.908-6.913A8.591,8.591,0,0,1,72.3,94.375Zm8.53-2.241a10.121,10.121,0,0,0-3.03-6.955,10.326,10.326,0,0,0-6.825-3.08l1.805-6.539a3.588,3.588,0,0,1,.708-1.241c3.636-2.6,9.227-1.834,13.112,2.054,4.108,4.108,4.744,10.124,1.579,13.718a3.825,3.825,0,0,1-.651.285Zm35.921-30.566-3.053,3.076c0-.409.049-0.8,0.012-1.221a16.012,16.012,0,0,0-15.355-14.21l3-3.027a8.241,8.241,0,0,1,5.889-2.331A12.528,12.528,0,0,1,112.354,56.8,8.305,8.305,0,0,1,110.005,63.337Z" transform="translate(-58 -42)"/>
</svg>
