<!-- Generated by IcoMoon.io -->
<svg version="1.1" xmlns="http://www.w3.org/2000/svg" width="37" height="32" viewBox="0 0 37 32">
<title>bubble</title>
<path fill="#fff" d="M18.283 5.713c-6.813 0-12.57 3.663-12.57 7.998-0 0.005-0 0.012-0 0.018 0 0.316 0.256 0.572 0.572 0.572s0.572-0.256 0.572-0.572c0-0.007-0-0.013-0-0.019l0 0.001c0-3.655 5.34-6.856 11.427-6.856 0.006 0 0.012 0 0.018 0 0.316 0 0.572-0.256 0.572-0.572s-0.256-0.572-0.572-0.572c-0.006 0-0.013 0-0.019 0l0.001-0zM18.283-0.001c-10.098 0.001-18.283 6.14-18.283 13.712 0 4.716 3.176 8.874 8.008 11.343 0 0.031-0.008 0.051-0.008 0.084 0 2.049-1.53 4.254-2.203 5.412v0c-0.054 0.121-0.085 0.262-0.085 0.41 0 0.57 0.463 1.033 1.033 1.033 0.001 0 0.002 0 0.003 0h-0c0.082-0.009 0.176-0.014 0.272-0.014 0.007 0 0.014 0 0.020 0h-0.001c3.571-0.585 6.935-3.865 7.716-4.817 1.059 0.165 2.281 0.259 3.525 0.261h0.001c10.097 0 18.283-6.139 18.283-13.712s-8.184-13.712-18.281-13.712zM18.283 25.139c-1.129-0.002-2.236-0.087-3.317-0.251l0.123 0.015c-0.1-0.016-0.214-0.025-0.331-0.025h-0c-0.71 0-1.344 0.324-1.763 0.832l-0.003 0.004c-1.013 1.122-2.173 2.084-3.457 2.863l-0.068 0.038c0.465-0.98 0.761-2.124 0.817-3.329l0.001-0.020c0.007-0.074 0.010-0.147 0.010-0.211 0-0 0-0 0-0.001 0-0.883-0.5-1.649-1.233-2.031l-0.013-0.006c-4.235-2.162-6.762-5.641-6.762-9.307 0-6.3 7.176-11.426 15.998-11.426s15.998 5.126 15.998 11.426-7.178 11.428-15.999 11.428z"></path>
</svg>
