<!-- Generated by IcoMoon.io -->
<svg version="1.1" xmlns="http://www.w3.org/2000/svg" width="28" height="32" viewBox="0 0 28 32">
<title>cup</title>
<path fill="#d1d5d7" d="M26.106 5.028l-1.212-3.653c-0.273-0.803-1.020-1.37-1.9-1.37h-17.997c-0 0-0 0-0.001 0-0.878 0-1.624 0.568-1.89 1.356l-0.004 0.014-1.223 3.653c-1.046 0.063-1.872 0.923-1.879 1.978v2.998c0 0 0 0 0 0.001 0 1.104 0.895 1.999 1.999 1.999 0 0 0 0 0.001 0h1.034c-0.011 0.065-0.019 0.141-0.021 0.218l-0 0.002 2 17.997c0.112 1.005 0.957 1.779 1.983 1.779 0 0 0.001 0 0.001 0h13.998c1.027-0.001 1.872-0.774 1.988-1.77l0.001-0.009 2-17.997c0.005-0.073-0.021-0.142-0.021-0.22h1.034c0 0 0 0 0.001 0 1.104 0 1.999-0.895 1.999-1.999 0-0 0-0 0-0.001v0-2.997c-0.006-1.060-0.838-1.923-1.884-1.978l-0.005-0zM4.997 2.005h17.997l1.002 3.002h-19.997zM6.996 30l-0.331-2.997h14.664l-0.336 2.997h-13.998zM21.44 26.001h-14.885l-1.113-9.998h17.11zM22.663 15.005h-17.331l-0.336-3.002h17.997zM25.996 10.004h-23.996v-2.997h23.996v2.997z"></path>
</svg>
