<!-- Generated by IcoMoon.io -->
<svg version="1.1" xmlns="http://www.w3.org/2000/svg" width="43" height="32" viewBox="0 0 43 32">
<title>diamond</title>
<path fill="#ccd0d2" d="M41.916 7.561l-6.778-6.778c-0.482-0.483-1.148-0.782-1.885-0.782-0.001 0-0.002 0-0.002 0h-23.803c-0.001 0-0.002 0-0.002 0-0.736 0-1.403 0.299-1.884 0.782l-6.778 6.778c-0.484 0.482-0.783 1.15-0.783 1.887 0 0.682 0.256 1.303 0.677 1.775l-0.002-0.003 18.68 19.894c0.491 0.551 1.203 0.897 1.995 0.897s1.504-0.346 1.993-0.894l0.002-0.003 18.681-19.894c0.418-0.469 0.674-1.090 0.674-1.772 0-0.737-0.299-1.404-0.782-1.887l-0-0zM24.311 9.338h-5.924l2.962-2.467zM22.393 6.001l3.647-3.037 2.692 2.69-3.379 2.814zM17.348 8.468l-3.379-2.814 2.695-2.69 3.647 3.037zM24.673 10.675l-3.323 16.614-3.323-16.614h6.646zM26.034 10.675h6.546l-9.82 16.371zM26.396 9.338l3.285-2.736 2.736 2.736h-6.025zM27.633 2.669h4.687l-2.557 2.13zM21.352 5.136l-2.962-2.467h5.924zM12.941 4.799l-2.556-2.13h4.687zM13.023 6.602l3.284 2.736h-6.025zM16.669 10.675l3.274 16.371-9.821-16.371h6.544zM16.955 24.657l-13.13-13.982h4.742zM34.138 10.675h4.739l-13.132 13.982zM34.305 9.338l-3.594-3.591 3.066-2.555 6.148 6.146h-5.624zM8.924 3.187l3.070 2.56-3.594 3.591h-5.724z"></path>
</svg>
