<!-- Generated by IcoMoon.io -->
<svg version="1.1" xmlns="http://www.w3.org/2000/svg" width="32" height="32" viewBox="0 0 32 32">
<title>paperplane</title>
<path fill="#fff" d="M31.542 0.16c-0.152-0.101-0.339-0.161-0.54-0.161-0 0-0 0-0 0h0c-0.001 0-0.003 0-0.004 0-0.206 0-0.397 0.062-0.557 0.168l0.004-0.002-29.997 20c-0.271 0.181-0.447 0.486-0.447 0.832 0 0.418 0.257 0.776 0.622 0.925l0.007 0.002 7.823 3.131 3.68 6.438c0.173 0.3 0.49 0.499 0.854 0.504h0.012c0.363-0 0.682-0.193 0.858-0.482l0.002-0.004 2.074-3.463 9.694 3.877c0.109 0.045 0.236 0.072 0.369 0.072h0c0.001 0 0.003 0 0.004 0 0.179 0 0.347-0.048 0.492-0.132l-0.005 0.003c0.26-0.148 0.445-0.402 0.496-0.701l0.001-0.006 4.999-30c0.009-0.050 0.014-0.107 0.014-0.166 0-0.349-0.18-0.655-0.451-0.833l-0.004-0.002zM3.134 20.777l23.178-15.448-16.85 18.037c-0.076-0.055-0.162-0.108-0.253-0.156l-0.012-0.006zM10.19 24.066c-0.003-0.002-0.006-0.005-0.006-0.009 0-0 0-0.001 0-0.001v0l18.941-20.275-16.149 25.162zM25.219 29.609l-8.541-3.416c-0.186-0.070-0.402-0.113-0.626-0.119l-0.003-0 13.153-20.388z"></path>
</svg>
