<!-- Generated by IcoMoon.io -->
<svg version="1.1" xmlns="http://www.w3.org/2000/svg" width="32" height="32" viewBox="0 0 32 32">
<title>pen</title>
<path fill="#fff" d="M29.395 2.58c-1.514-1.553-3.612-2.531-5.938-2.58l-0.009-0c-0.025-0-0.054-0.001-0.084-0.001-1.787 0-3.406 0.716-4.587 1.877l0.001-0.001-4.866 4.905c-0.015 0.014-0.032 0.023-0.047 0.038s-0.013 0.018-0.020 0.026v0l-10.328 10.41c-0.462 0.462-0.811 1.036-1.005 1.677l-0.007 0.028-2.349 8.508c-0.072 0.296-0.127 0.648-0.155 1.008l-0.001 0.024c0.002 1.933 1.569 3.5 3.503 3.5 0.001 0 0.002 0 0.002 0h-0c0.43-0.034 0.825-0.101 1.208-0.198l-0.049 0.011 8.476-2.229c0.67-0.203 1.243-0.553 1.705-1.016l0-0 15.263-15.382c2.775-2.78 2.463-7.436-0.712-10.606zM16.014 23.796c-0.098-0.972-0.352-1.862-0.738-2.678l0.021 0.050 9.454-9.453c0.194 0.505 0.306 1.089 0.306 1.699 0 1.277-0.491 2.439-1.294 3.308l0.003-0.003c-0.008 0.008-0.017 0.013-0.025 0.020l0.012 0.013-7.729 7.789c0.001-0.248 0.013-0.492-0.010-0.745zM14.794 20.256c-0.8-1.378-1.945-2.478-3.32-3.199l-0.045-0.022 9.532-9.532c1.474 0.662 2.646 1.778 3.36 3.169l0.018 0.039zM10.486 16.563c-0.846-0.358-1.829-0.576-2.86-0.598l-0.009-0 7.704-7.762c0.85-0.779 1.988-1.256 3.237-1.256 0.482 0 0.947 0.071 1.385 0.203l-0.034-0.009zM4.168 29.873c-0.19 0.052-0.42 0.096-0.655 0.124l-0.023 0.002c-0.823-0.008-1.488-0.676-1.49-1.5v-0c0.027-0.22 0.063-0.411 0.109-0.598l-0.007 0.035 1.053-3.814c2.616 0.002 4.736 2.124 4.736 4.74 0 0.012-0 0.024-0 0.036v-0.002zM8.874 28.637c-0.041-1.506-0.673-2.857-1.671-3.836l-0.001-0.001c-0.966-0.984-2.285-1.619-3.751-1.699l-0.015-0.001 0.996-3.608c0.089-0.264 0.222-0.493 0.393-0.687l-0.002 0.002c2.006-1.434 5.091-1.012 7.234 1.133 2.266 2.266 2.617 5.586 0.871 7.569-0.102 0.058-0.22 0.111-0.344 0.153l-0.015 0.004zM28.693 11.773l-1.684 1.697c0-0.226 0.027-0.441 0.007-0.674-0.502-4.33-4.072-7.682-8.456-7.84l-0.015-0 1.655-1.67c0.818-0.796 1.936-1.287 3.169-1.287 0.028 0 0.056 0 0.084 0.001l-0.004-0c3.415 0.169 6.168 2.793 6.538 6.134l0.003 0.031c0.011 0.119 0.017 0.256 0.017 0.396 0 1.251-0.501 2.385-1.314 3.211l0.001-0.001z"></path>
</svg>
