<!-- Generated by IcoMoon.io -->
<svg version="1.1" xmlns="http://www.w3.org/2000/svg" width="22" height="32" viewBox="0 0 22 32">
<title>phone</title>
<path fill="#d1d5d7" d="M18.993 0.005h-15.992c-1.657 0-3.001 1.344-3.001 3.001v0 25.993c0 1.657 1.344 3.001 3.001 3.001v0h15.992c1.657 0 3.001-1.344 3.001-3.001v0-25.993c0-1.657-1.344-3.001-3.001-3.001v0zM19.996 28.999c0 0 0 0.001 0 0.002 0 0.553-0.448 1.001-1.001 1.001-0.001 0-0.001 0-0.002 0h-15.992c-0 0-0.001 0-0.002 0-0.553 0-1.001-0.448-1.001-1.001 0-0.001 0-0.001 0-0.002v0-1.999l17.997-0.005v2.004zM19.996 25.998h-17.997v-19.99h17.997v19.99zM19.996 5.005h-17.997v-1.999c0.001-0.551 0.448-0.997 1-0.997 0.001 0 0.002 0 0.003 0l15.992-0.005c0 0 0.001 0 0.002 0 0.553 0 1.001 0.448 1.001 1.001 0 0.001 0 0.001 0 0.002v-0 1.999zM12.996 3.505c-0.001 0.275-0.223 0.498-0.498 0.498h-3.001c-0.275-0.001-0.498-0.223-0.498-0.498v-0c0.001-0.275 0.223-0.498 0.498-0.498h3.001c0.275 0.001 0.498 0.223 0.498 0.498v0zM11.999 28.495c-0.001 0.276-0.225 0.498-0.501 0.498-0.001 0-0.002 0-0.003 0h-0.997c-0.001 0-0.002 0-0.003 0-0.274 0-0.496-0.222-0.496-0.496 0-0.001 0-0.002 0-0.003v0c0-0.001 0-0.002 0-0.003 0-0.274 0.222-0.496 0.496-0.496 0.001 0 0.002 0 0.003 0h0.997c0.001 0 0.002 0 0.003 0 0.276 0 0.499 0.223 0.501 0.498v0z"></path>
</svg>
