<!-- Generated by IcoMoon.io -->
<svg version="1.1" xmlns="http://www.w3.org/2000/svg" width="30" height="32" viewBox="0 0 30 32">
<title>photo</title>
<path fill="#fff" d="M25.995 0h-21.995c-2.209 0-4 1.79-4.001 3.999v23.996c0.001 2.209 1.792 3.999 4.001 3.999h21.995c2.209 0 4-1.79 4.001-3.999v-23.997c-0.001-2.209-1.792-3.999-4.001-3.999v0zM27.993 27.996c0 1.104-0.894 1.998-1.997 2h-21.995c-1.105-0.001-2-0.895-2.003-1.999v-23.997c0.002-1.105 0.898-1.999 2.003-2h21.995c1.103 0.001 1.997 0.896 1.997 1.999 0 0 0 0 0 0.001v-0 23.996zM24.994 3.999h-19.997c-0.55 0.001-0.996 0.448-0.996 0.998 0 0.001 0 0.001 0 0.002v-0 17.997c0 0.001 0 0.002 0 0.002 0 0.55 0.446 0.996 0.996 0.997h19.997c0.001 0 0.002 0 0.003 0 0.552 0 0.999-0.447 0.999-0.999 0-0 0-0.001 0-0.001v0-17.998c0-0 0-0 0-0.001 0-0.552-0.447-0.999-0.999-0.999-0.001 0-0.002 0-0.003 0h0zM24.994 4.999v13.867l-3.246-3.531c-0.185-0.208-0.453-0.338-0.751-0.338s-0.567 0.13-0.75 0.337l-0.001 0.001-2.601 2.951-7.893-8.949c-0.184-0.208-0.453-0.339-0.751-0.339s-0.567 0.131-0.75 0.338l-3.253 3.748v-8.086h19.997zM4.996 14.597l4.001-4.599 8.647 9.8 2.764 3.198h-15.411v-8.4zM21.735 22.996l-3.427-3.954 2.691-3.045 3.995 4.379v2.62h-3.258zM18.996 12.998c0 0 0 0 0.001 0 1.657 0 3-1.343 3-3s-1.343-3-3-3c-1.657 0-3 1.343-3 3v0c0 0.001 0 0.001 0 0.002 0 1.655 1.342 2.997 2.997 2.997 0.001 0 0.001 0 0.002 0h-0zM18.996 7.998c0.001 0 0.002 0 0.002 0 1.104 0 2 0.895 2 2s-0.895 2-2 2c-1.104 0-2-0.895-2-2v0c0.002-1.103 0.895-1.997 1.997-2h0z"></path>
</svg>
