<!-- Generated by IcoMoon.io -->
<svg version="1.1" xmlns="http://www.w3.org/2000/svg" width="32" height="32" viewBox="0 0 32 32">
<title>settings</title>
<path fill="#fff" d="M30.392 12.678l-3.065-0.614c-0.183-0.522-0.364-0.948-0.568-1.36l0.032 0.071 1.735-2.605c0.21-0.312 0.336-0.696 0.336-1.109 0-0.552-0.224-1.052-0.586-1.414l-1.926-1.926c-0.362-0.362-0.862-0.586-1.415-0.586-0.413 0-0.798 0.125-1.116 0.34l0.007-0.005-2.605 1.735c-0.342-0.172-0.768-0.353-1.206-0.51l-0.084-0.026-0.613-3.066c-0.189-0.924-0.995-1.609-1.961-1.609-0 0-0 0-0 0h-2.719c-0 0-0 0-0 0-0.966 0-1.772 0.685-1.959 1.596l-0.002 0.013-0.614 3.066c-0.522 0.183-0.947 0.364-1.36 0.567l0.071-0.032-2.605-1.735c-0.312-0.21-0.696-0.336-1.109-0.336-0.552 0-1.053 0.224-1.415 0.586l-1.926 1.926c-0.362 0.362-0.586 0.862-0.586 1.414 0 0.414 0.126 0.798 0.341 1.117l-0.005-0.007 1.735 2.605c-0.173 0.342-0.354 0.768-0.51 1.206l-0.026 0.084-3.065 0.613c-0.923 0.189-1.608 0.995-1.609 1.961v2.721c0 0.966 0.685 1.772 1.596 1.958l0.013 0.002 3.065 0.614c0.183 0.523 0.365 0.948 0.568 1.361l-0.032-0.071-1.735 2.605c-0.211 0.312-0.336 0.696-0.336 1.109 0 0.552 0.224 1.052 0.586 1.414l1.926 1.926c0.362 0.362 0.862 0.586 1.414 0.586 0.413 0 0.798-0.125 1.117-0.34l-0.007 0.005 2.605-1.735c0.342 0.172 0.768 0.353 1.206 0.509l0.084 0.026 0.613 3.066c0.189 0.923 0.995 1.608 1.96 1.608 0 0 0 0 0.001 0h2.719c0 0 0 0 0.001 0 0.966 0 1.771-0.685 1.958-1.595l0.002-0.013 0.614-3.066c0.522-0.183 0.948-0.364 1.36-0.567l-0.071 0.032 2.605 1.735c0.312 0.21 0.696 0.336 1.11 0.336 0.552 0 1.052-0.224 1.414-0.586l1.926-1.926c0.362-0.362 0.586-0.862 0.586-1.414 0-0.413-0.125-0.798-0.34-1.116l0.005 0.007-1.735-2.605c0.172-0.342 0.354-0.768 0.51-1.206l0.026-0.084 3.065-0.613c0.924-0.189 1.608-0.994 1.609-1.96v0-2.721c-0-0.966-0.685-1.772-1.596-1.959l-0.013-0.002zM26.934 17.973c-0.701 0.143-1.26 0.638-1.492 1.289l-0.004 0.014c-0.152 0.435-0.303 0.79-0.473 1.134l0.026-0.058c-0.126 0.255-0.2 0.555-0.2 0.872 0 0.414 0.126 0.798 0.341 1.117l-0.005-0.007 1.735 2.605-1.926 1.926-2.605-1.736c-0.312-0.211-0.697-0.337-1.11-0.337-0.317 0-0.617 0.074-0.884 0.205l0.012-0.005c-0.285 0.144-0.641 0.296-1.006 0.427l-0.070 0.022c-0.664 0.236-1.159 0.795-1.3 1.483l-0.002 0.013-0.614 3.066h-2.719l-0.613-3.066c-0.144-0.701-0.638-1.26-1.289-1.491l-0.014-0.004c-0.436-0.153-0.791-0.304-1.135-0.474l0.059 0.026c-0.255-0.127-0.555-0.201-0.873-0.201-0.413 0-0.798 0.126-1.116 0.341l0.007-0.005-2.605 1.736-1.926-1.926 1.735-2.605c0.211-0.312 0.336-0.697 0.336-1.111 0-0.317-0.074-0.617-0.205-0.883l0.005 0.012c-0.144-0.285-0.295-0.641-0.426-1.006l-0.022-0.070c-0.236-0.664-0.795-1.159-1.483-1.3l-0.013-0.002-3.065-0.614v-2.721l3.066-0.613c0.701-0.143 1.26-0.638 1.492-1.289l0.004-0.014c0.151-0.434 0.302-0.789 0.473-1.133l-0.026 0.057c0.126-0.255 0.2-0.555 0.2-0.873 0-0.414-0.126-0.798-0.341-1.117l0.005 0.007-1.735-2.605 1.926-1.926 2.605 1.736c0.312 0.211 0.697 0.336 1.111 0.336 0.317 0 0.617-0.074 0.884-0.205l-0.012 0.005c0.286-0.144 0.641-0.296 1.006-0.427l0.070-0.022c0.664-0.236 1.159-0.795 1.3-1.483l0.002-0.013 0.614-3.066h2.719l0.613 3.066c0.143 0.701 0.638 1.26 1.289 1.491l0.014 0.004c0.436 0.153 0.791 0.304 1.135 0.474l-0.059-0.026c0.255 0.127 0.555 0.201 0.873 0.201 0.413 0 0.798-0.126 1.116-0.341l-0.007 0.005 2.605-1.736 1.926 1.926-1.735 2.605c-0.211 0.312-0.336 0.697-0.336 1.111 0 0.317 0.074 0.617 0.205 0.883l-0.005-0.012c0.144 0.285 0.295 0.64 0.426 1.005l0.022 0.071c0.236 0.664 0.795 1.159 1.483 1.3l0.013 0.002 3.065 0.614v2.721zM16.003 9c-0 0-0 0-0.001 0-3.866 0-7 3.134-7 7s3.134 7 7 7c3.866 0 7-3.134 7-7v0c-0-3.866-3.135-7-7.001-7-0.001 0-0.001 0-0.002 0h0zM16.003 22.125c-0 0-0 0-0.001 0-3.383 0-6.125-2.742-6.125-6.125s2.742-6.125 6.125-6.125c3.383 0 6.125 2.742 6.125 6.125 0 0 0 0 0 0.001v-0c-0.001 3.383-2.743 6.125-6.126 6.125-0.001 0-0.001 0-0.002 0h0zM16.003 12c-0 0-0 0-0.001 0-2.209 0-4 1.791-4 4s1.791 4 4 4c2.209 0 4-1.791 4-4v0c0-0 0-0.001 0-0.001 0-2.209-1.79-3.999-3.999-3.999-0.001 0-0.002 0-0.004 0h0zM16.003 19c-1.658 0-3.002-1.344-3.002-3.002s1.344-3.002 3.002-3.002c1.658 0 3.002 1.344 3.002 3.002v0c0 1.658-1.344 3.002-3.002 3.002-0.001 0-0.002 0-0.003 0h0z"></path>
</svg>
