<!-- Generated by IcoMoon.io -->
<svg version="1.1" xmlns="http://www.w3.org/2000/svg" width="37" height="32" viewBox="0 0 37 32">
<title>study</title>
<path fill="#fff" d="M36.566 6.859c0-0.004 0-0.008 0-0.013 0-1.617-1.124-2.972-2.633-3.326l-0.023-0.005-14.875-3.429c-0.224-0.055-0.48-0.087-0.744-0.087-0.005 0-0.009 0-0.014 0h0.001c-0.273 0-0.539 0.032-0.794 0.091l0.024-0.005-14.856 3.429c-1.534 0.364-2.658 1.722-2.658 3.343s1.124 2.979 2.635 3.338l0.023 0.005 3.057 0.703v9.666c0 3.034 3.472 5.717 12.571 5.717s12.574-2.683 12.574-5.717v-9.666l3.051-0.703c1.535-0.356 2.662-1.712 2.662-3.331 0-0.004 0-0.008-0-0.013v0.001zM28.566 20.571c0 1.266-3.429 3.429-10.286 3.429s-10.285-2.164-10.285-3.429v-9.136l9.53 2.196c0.227 0.053 0.488 0.085 0.756 0.087h0.001c0.275-0.002 0.54-0.036 0.795-0.097l-0.024 0.005 9.515-2.191v9.136zM18.538 11.402c-0.077 0.017-0.166 0.027-0.257 0.027s-0.18-0.010-0.265-0.029l0.008 0.002-14.857-3.429c-0.512-0.121-0.887-0.574-0.887-1.114s0.375-0.993 0.879-1.113l0.008-0.002 14.857-3.429c0.077-0.017 0.166-0.027 0.257-0.027s0.18 0.010 0.265 0.029l-0.008-0.002 14.859 3.429c0.509 0.124 0.881 0.575 0.881 1.114s-0.372 0.991-0.873 1.113l-0.008 0.002zM33.137 12.571v10.288c0 0.632 0.512 1.144 1.144 1.144s1.144-0.512 1.144-1.144v0-10.288c0-0.632-0.512-1.144-1.144-1.144s-1.144 0.512-1.144 1.144v0zM34.278 25.141c-1.26 0-2.283 3.31-2.283 4.571 0 1.262 1.023 2.285 2.285 2.285s2.285-1.023 2.285-2.285v0c0-1.26-1.022-4.571-2.288-4.571z"></path>
</svg>
