<!-- Generated by IcoMoon.io -->
<svg version="1.1" xmlns="http://www.w3.org/2000/svg" width="32" height="32" viewBox="0 0 32 32">
<title>user</title>
<path fill="#fff" d="M31.109 28.335c-2.665-1.665-5.767-2.945-9.079-3.663l-0.193-0.035c1.727-2.316 3.044-5.051 3.778-8.015l0.033-0.156c0.753-3.128 0.461-9.248-2.543-13.061-1.684-2.085-4.24-3.407-7.105-3.407s-5.421 1.322-7.091 3.389l-0.014 0.017c-3.004 3.813-3.296 9.933-2.543 13.061 0.766 3.12 2.083 5.855 3.853 8.232l-0.043-0.060c-3.505 0.753-6.607 2.033-9.396 3.769l0.124-0.072c-0.54 0.364-0.891 0.973-0.891 1.665 0 1.105 0.895 2 2 2 0 0 0 0 0 0h28c0 0 0 0 0 0 1.105 0 2-0.895 2-2 0-0.691-0.351-1.301-0.884-1.66l-0.007-0.005zM20.267 23.398l-0.327 0.415c-2.385 2.739-5.494 2.739-7.879 0l-0.327-0.415c-2.302-2.886-3.694-6.587-3.694-10.613 0-0.718 0.044-1.425 0.13-2.12l-0.008 0.083c0.546-4.279 2.998-8.749 7.839-8.749s7.293 4.47 7.839 8.749c0.077 0.611 0.122 1.318 0.122 2.036 0 4.026-1.392 7.727-3.72 10.649l0.027-0.035zM2 30c2.468-1.532 5.341-2.711 8.406-3.374l0.179-0.033 2.485-0.538c0.812 0.591 1.83 0.945 2.93 0.945s2.117-0.354 2.944-0.955l-0.014 0.010 2.485 0.538c3.244 0.696 6.117 1.875 8.703 3.474l-0.117-0.067h-28z"></path>
</svg>
